<svg version="1.1" id="Layer_1" xmlns="http://www.w3.org/2000/svg" xmlns:xlink="http://www.w3.org/1999/xlink" x="0px" y="0px"
	 width="100%" viewBox="0 0 192 192" enable-background="new 0 0 192 192" xml:space="preserve">
<path fill="#6F00FF" opacity="1.000000" stroke="none" 
	d="
M193.000000,97.000000 
	C193.000000,128.975677 193.000000,160.951355 193.000000,192.963516 
	C129.072983,192.963516 65.145943,192.963516 1.109451,192.963516 
	C1.109451,129.121780 1.109451,65.243309 1.109451,1.000000 
	C32.686626,1.000000 64.374657,1.000000 96.531258,1.468657 
	C96.969765,17.602957 96.939705,33.268597 96.448837,48.964119 
	C80.399445,48.993999 64.810860,48.993999 49.167606,48.993999 
	C49.167606,65.401360 49.167606,81.201302 49.095566,97.464554 
	C49.023525,113.520447 49.023525,129.113022 49.023525,144.832413 
	C65.406792,144.832413 81.202797,144.832413 97.462509,144.908325 
	C113.520699,144.984222 129.115173,144.984222 145.065796,144.984222 
	C145.065796,128.674423 145.065796,112.882423 145.529099,97.054764 
	C161.661606,97.012733 177.330795,97.006371 193.000000,97.000000 
z"/>
<path fill="#23C9FF" opacity="1.000000" stroke="none" 
	d="
M193.000000,96.531342 
	C177.330795,97.006371 161.661606,97.012733 145.457184,97.067574 
	C144.921982,97.116043 144.852173,96.987701 144.911316,96.523689 
	C144.970459,80.489021 144.970459,64.918365 144.970459,49.147877 
	C128.562119,49.147877 112.787216,49.147877 96.948105,49.112995 
	C96.883888,49.078114 96.909637,48.934238 96.909637,48.934238 
	C96.939705,33.268597 96.969765,17.602957 96.999916,1.468657 
	C128.926926,1.000000 160.853851,1.000000 193.000000,1.000000 
	C193.000000,32.687225 193.000000,64.374954 193.000000,96.531342 
z"/>
<path fill="#FFFB0A" opacity="1.000000" stroke="none" 
	d="
M49.167606,97.001244 
	C49.167606,81.201302 49.167606,65.401360 49.167606,48.993999 
	C64.810860,48.993999 80.399445,48.993999 96.448837,48.964119 
	C96.909637,48.934238 96.883888,49.078114 96.942993,49.571877 
	C96.986725,65.725098 96.971359,81.384552 96.977928,97.021469 
	C96.999863,96.998940 97.043335,96.953491 96.572327,96.973038 
	C80.456741,96.995468 64.812172,96.998360 49.167606,97.001244 
z"/>
<path fill="#FFFFFF" opacity="1.000000" stroke="none" 
	d="
M49.095566,97.464554 
	C64.812172,96.998360 80.456741,96.995468 96.554092,97.444458 
	C97.004189,113.541695 97.001488,129.187057 96.998795,144.832413 
	C81.202797,144.832413 65.406792,144.832413 49.023525,144.832413 
	C49.023525,129.113022 49.023525,113.520447 49.095566,97.464554 
z"/>
<path fill="#FFFB0A" opacity="1.000000" stroke="none" 
	d="
M97.462509,144.908325 
	C97.001488,129.187057 97.004189,113.541695 97.025108,97.424911 
	C97.043335,96.953491 96.999863,96.998940 97.449097,97.002960 
	C113.549614,97.000557 129.200897,96.994125 144.852173,96.987701 
	C144.852173,96.987701 144.921982,97.116043 144.993896,97.103233 
	C145.065796,112.882423 145.065796,128.674423 145.065796,144.984222 
	C129.115173,144.984222 113.520699,144.984222 97.462509,144.908325 
z"/>
<path fill="#FFFFFF" opacity="1.000000" stroke="none" 
	d="
M144.911316,96.523689 
	C129.200897,96.994125 113.549614,97.000557 97.427162,97.025497 
	C96.971359,81.384552 96.986725,65.725098 97.007202,49.606758 
	C112.787216,49.147877 128.562119,49.147877 144.970459,49.147877 
	C144.970459,64.918365 144.970459,80.489021 144.911316,96.523689 
z"/>
</svg>