<svg version="1.1" id="Layer_1" xmlns="http://www.w3.org/2000/svg" xmlns:xlink="http://www.w3.org/1999/xlink" x="0px" y="0px"
	 width="100%" viewBox="0 0 500 200" enable-background="new 0 0 500 200" xml:space="preserve">
<path fill="#6F01FF" opacity="1.000000" stroke="none" 
	d="
M309.000000,201.000000 
	C206.388382,201.000000 103.776764,201.000000 1.082575,201.000000 
	C1.082575,134.424225 1.082575,67.848305 1.082575,1.000000 
	C103.354065,1.000000 205.708374,1.000000 308.480103,1.466332 
	C308.887573,43.011230 308.860016,84.089806 308.874359,125.168365 
	C308.883179,150.445587 308.955963,175.722794 309.000000,201.000000 
M160.587021,158.855392 
	C164.632019,164.327362 169.937134,167.876450 176.724060,168.722778 
	C184.737686,169.722076 191.254181,166.514236 196.516327,160.315964 
	C197.484802,162.868988 198.243820,164.869827 198.965073,166.771133 
	C207.998581,166.771133 216.756897,166.771133 225.715881,166.771133 
	C225.715881,136.662140 225.715881,106.787285 225.715881,76.675125 
	C215.954514,76.675125 206.408096,76.675125 196.311340,76.675125 
	C196.311340,87.159668 196.311340,97.347252 196.311340,107.963158 
	C181.647690,96.120529 165.362732,98.861702 158.200424,114.348740 
	C151.356445,129.147446 151.787109,143.979599 160.587021,158.855392 
M99.991875,156.473190 
	C99.991875,154.475250 99.991119,152.477310 99.992012,150.479370 
	C99.994530,144.818619 99.905388,139.155746 100.035507,133.497925 
	C100.112740,130.140060 100.290939,126.043732 104.627251,125.861084 
	C109.503227,125.655708 109.472275,130.126495 109.713425,133.525223 
	C109.995537,137.501404 109.793983,141.512177 109.795631,145.507935 
	C109.798538,152.585617 109.796448,159.663300 109.796448,166.718201 
	C119.926254,166.718201 129.336212,166.718201 138.802826,166.718201 
	C138.802826,152.653168 139.327774,138.840118 138.545959,125.101433 
	C138.230652,119.560486 135.890488,113.683678 132.998444,108.839333 
	C127.822708,100.169701 116.421379,97.797173 108.025482,102.861092 
	C105.552002,104.352943 103.489128,106.525597 101.504425,108.166100 
	C100.098907,106.168213 98.780296,102.488800 97.229271,102.388062 
	C88.496437,101.820908 79.707703,102.114403 70.833870,102.114403 
	C70.833870,123.999336 70.833870,145.251068 70.833870,166.687927 
	C80.612801,166.687927 90.156357,166.687927 99.991875,166.687927 
	C99.991875,163.405762 99.991875,160.433334 99.991875,156.473190 
M237.613480,159.725967 
	C241.307343,165.245880 246.741150,167.780975 253.095108,168.674774 
	C261.020203,169.789597 267.277130,166.620468 271.757782,161.012833 
	C273.543671,163.244202 274.952057,166.644608 276.563141,166.743546 
	C285.282776,167.278961 294.052551,166.997421 302.926147,166.997421 
	C302.926147,155.041183 303.192932,143.725052 302.856964,132.426849 
	C302.459106,119.046562 293.230957,107.030205 279.992859,102.587158 
	C265.844727,97.838661 252.912689,100.294022 241.079071,110.034538 
	C244.635651,115.676422 247.971115,120.967545 251.297653,126.244499 
	C262.529480,119.990730 269.290405,120.505402 272.930267,127.995079 
	C266.752289,128.358917 260.644714,128.379196 254.630142,129.137283 
	C237.483826,131.298431 230.072952,144.217712 237.613480,159.725967 
M42.497421,167.004883 
	C47.269138,167.004883 52.040852,167.004883 56.816830,167.004883 
	C56.816830,138.165649 56.816830,109.931786 56.816830,81.687073 
	C46.149586,81.687073 35.793095,81.687073 25.438168,81.687073 
	C25.438168,110.246277 25.438168,138.351898 25.438168,167.004883 
	C30.938885,167.004883 36.219086,167.004883 42.497421,167.004883 
z"/>
<path fill="#24C9FF" opacity="1.000000" stroke="none" 
	d="
M309.468689,201.000000 
	C308.955963,175.722794 308.883179,150.445587 308.874359,125.168365 
	C308.860016,84.089806 308.887573,43.011230 308.948730,1.466332 
	C372.952026,1.000000 436.904083,1.000000 500.928040,1.000000 
	C500.928040,67.568687 500.928040,134.137466 500.928040,201.000000 
	C437.312744,201.000000 373.625031,201.000000 309.468689,201.000000 
M343.996765,79.801811 
	C343.217224,78.653030 342.464447,76.527649 341.654114,76.505486 
	C332.875977,76.265312 324.088806,76.355469 314.977631,76.355469 
	C314.977631,106.752686 314.977631,136.603775 314.977631,166.729095 
	C323.957642,166.729095 332.708527,166.729095 341.399567,166.729095 
	C342.306854,164.676849 343.141113,162.789688 344.045410,160.744141 
	C358.968201,176.284546 378.240448,167.281891 383.787537,151.577682 
	C388.267548,138.894440 388.122009,126.412422 382.245758,114.260117 
	C376.964020,103.337158 365.606934,97.842720 354.991028,101.320770 
	C351.097504,102.596405 347.703461,105.396660 343.997894,107.550079 
	C343.997894,98.706062 343.997894,89.723297 343.996765,79.801811 
M415.024414,105.390213 
	C402.153442,113.175446 396.234192,124.707726 398.335541,139.475204 
	C400.451294,154.343903 409.766815,163.819855 424.167603,167.224136 
	C430.601410,168.745071 437.759735,168.699356 444.352417,167.738907 
	C458.174957,165.725189 469.378143,154.444321 471.889404,141.469498 
	C474.640991,127.253067 469.265991,113.959656 456.660706,106.264610 
	C443.428711,98.186943 429.556030,98.289787 415.024414,105.390213 
z"/>
<path fill="#FDF80D" opacity="1.000000" stroke="none" 
	d="
M160.366302,158.569061 
	C151.787109,143.979599 151.356445,129.147446 158.200424,114.348740 
	C165.362732,98.861702 181.647690,96.120529 196.311340,107.963158 
	C196.311340,97.347252 196.311340,87.159668 196.311340,76.675125 
	C206.408096,76.675125 215.954514,76.675125 225.715881,76.675125 
	C225.715881,106.787285 225.715881,136.662140 225.715881,166.771133 
	C216.756897,166.771133 207.998581,166.771133 198.965073,166.771133 
	C198.243820,164.869827 197.484802,162.868988 196.516327,160.315964 
	C191.254181,166.514236 184.737686,169.722076 176.724060,168.722778 
	C169.937134,167.876450 164.632019,164.327362 160.366302,158.569061 
M193.527298,143.085938 
	C197.794495,139.409790 198.992279,133.465195 196.354706,128.868103 
	C194.482742,125.605415 191.645462,124.747437 188.303925,126.165520 
	C184.927780,127.598297 183.404633,133.126190 184.796204,138.114822 
	C185.933868,142.193253 188.326828,144.388672 193.527298,143.085938 
z"/>
<path fill="#FEFEFF" opacity="1.000000" stroke="none" 
	d="
M99.991875,156.967041 
	C99.991875,160.433334 99.991875,163.405762 99.991875,166.687927 
	C90.156357,166.687927 80.612801,166.687927 70.833870,166.687927 
	C70.833870,145.251068 70.833870,123.999336 70.833870,102.114403 
	C79.707703,102.114403 88.496437,101.820908 97.229271,102.388062 
	C98.780296,102.488800 100.098907,106.168213 101.504425,108.166100 
	C103.489128,106.525597 105.552002,104.352943 108.025482,102.861092 
	C116.421379,97.797173 127.822708,100.169701 132.998444,108.839333 
	C135.890488,113.683678 138.230652,119.560486 138.545959,125.101433 
	C139.327774,138.840118 138.802826,152.653168 138.802826,166.718201 
	C129.336212,166.718201 119.926254,166.718201 109.796448,166.718201 
	C109.796448,159.663300 109.798538,152.585617 109.795631,145.507935 
	C109.793983,141.512177 109.995537,137.501404 109.713425,133.525223 
	C109.472275,130.126495 109.503227,125.655708 104.627251,125.861084 
	C100.290939,126.043732 100.112740,130.140060 100.035507,133.497925 
	C99.905388,139.155746 99.994530,144.818619 99.992012,150.479370 
	C99.991119,152.477310 99.991875,154.475250 99.991875,156.967041 
z"/>
<path fill="#FDF80D" opacity="1.000000" stroke="none" 
	d="
M237.407104,159.415741 
	C230.072952,144.217712 237.483826,131.298431 254.630142,129.137283 
	C260.644714,128.379196 266.752289,128.358917 272.930267,127.995079 
	C269.290405,120.505402 262.529480,119.990730 251.297653,126.244499 
	C247.971115,120.967545 244.635651,115.676422 241.079071,110.034538 
	C252.912689,100.294022 265.844727,97.838661 279.992859,102.587158 
	C293.230957,107.030205 302.459106,119.046562 302.856964,132.426849 
	C303.192932,143.725052 302.926147,155.041183 302.926147,166.997421 
	C294.052551,166.997421 285.282776,167.278961 276.563141,166.743546 
	C274.952057,166.644608 273.543671,163.244202 271.757782,161.012833 
	C267.277130,166.620468 261.020203,169.789597 253.095108,168.674774 
	C246.741150,167.780975 241.307343,165.245880 237.407104,159.415741 
M264.365051,143.202209 
	C263.393402,146.241745 263.995544,148.625137 267.507446,149.054230 
	C271.051056,149.487198 273.300781,145.323105 272.938538,137.927307 
	C269.885803,139.659088 267.340027,141.103271 264.365051,143.202209 
z"/>
<path fill="#FDFCFF" opacity="1.000000" stroke="none" 
	d="
M41.998356,167.004883 
	C36.219086,167.004883 30.938885,167.004883 25.438168,167.004883 
	C25.438168,138.351898 25.438168,110.246277 25.438168,81.687073 
	C35.793095,81.687073 46.149586,81.687073 56.816830,81.687073 
	C56.816830,109.931786 56.816830,138.165649 56.816830,167.004883 
	C52.040852,167.004883 47.269138,167.004883 41.998356,167.004883 
z"/>
<path fill="#FDFFFF" opacity="1.000000" stroke="none" 
	d="
M343.997314,80.271172 
	C343.997894,89.723297 343.997894,98.706062 343.997894,107.550079 
	C347.703461,105.396660 351.097504,102.596405 354.991028,101.320770 
	C365.606934,97.842720 376.964020,103.337158 382.245758,114.260117 
	C388.122009,126.412422 388.267548,138.894440 383.787537,151.577682 
	C378.240448,167.281891 358.968201,176.284546 344.045410,160.744141 
	C343.141113,162.789688 342.306854,164.676849 341.399567,166.729095 
	C332.708527,166.729095 323.957642,166.729095 314.977631,166.729095 
	C314.977631,136.603775 314.977631,106.752686 314.977631,76.355469 
	C324.088806,76.355469 332.875977,76.265312 341.654114,76.505486 
	C342.464447,76.527649 343.217224,78.653030 343.997314,80.271172 
M356.079437,135.333786 
	C355.837219,133.550766 355.877197,131.669235 355.295990,130.004593 
	C353.947632,126.142822 350.398193,124.558723 347.047791,126.043816 
	C343.755676,127.503059 342.045441,132.252014 343.068542,137.360367 
	C343.782654,140.925903 345.686646,143.758347 349.582947,143.614014 
	C353.994934,143.450592 355.591949,140.139496 356.079437,135.333786 
z"/>
<path fill="#FDFEFF" opacity="1.000000" stroke="none" 
	d="
M415.353027,105.217453 
	C429.556030,98.289787 443.428711,98.186943 456.660706,106.264610 
	C469.265991,113.959656 474.640991,127.253067 471.889404,141.469498 
	C469.378143,154.444321 458.174957,165.725189 444.352417,167.738907 
	C437.759735,168.699356 430.601410,168.745071 424.167603,167.224136 
	C409.766815,163.819855 400.451294,154.343903 398.335541,139.475204 
	C396.234192,124.707726 402.153442,113.175446 415.353027,105.217453 
M436.835571,125.766472 
	C431.334320,125.669373 428.662201,127.623665 427.563080,132.547958 
	C426.630127,136.727814 428.754059,141.535004 432.337036,143.011368 
	C436.096710,144.560547 439.144470,143.419235 441.393738,140.138565 
	C444.101135,136.189697 443.550964,130.756546 440.087372,127.427177 
	C439.398926,126.765419 438.403961,126.422585 436.835571,125.766472 
z"/>
<path fill="#7409F6" opacity="1.000000" stroke="none" 
	d="
M193.173492,143.204773 
	C188.326828,144.388672 185.933868,142.193253 184.796204,138.114822 
	C183.404633,133.126190 184.927780,127.598297 188.303925,126.165520 
	C191.645462,124.747437 194.482742,125.605415 196.354706,128.868103 
	C198.992279,133.465195 197.794495,139.409790 193.173492,143.204773 
z"/>
<path fill="#7409F6" opacity="1.000000" stroke="none" 
	d="
M264.579651,142.874832 
	C267.340027,141.103271 269.885803,139.659088 272.938538,137.927307 
	C273.300781,145.323105 271.051056,149.487198 267.507446,149.054230 
	C263.995544,148.625137 263.393402,146.241745 264.579651,142.874832 
z"/>
<path fill="#2ACBFF" opacity="1.000000" stroke="none" 
	d="
M356.061493,135.751465 
	C355.591949,140.139496 353.994934,143.450592 349.582947,143.614014 
	C345.686646,143.758347 343.782654,140.925903 343.068542,137.360367 
	C342.045441,132.252014 343.755676,127.503059 347.047791,126.043816 
	C350.398193,124.558723 353.947632,126.142822 355.295990,130.004593 
	C355.877197,131.669235 355.837219,133.550766 356.061493,135.751465 
z"/>
<path fill="#29CAFF" opacity="1.000000" stroke="none" 
	d="
M437.192932,125.849579 
	C438.403961,126.422585 439.398926,126.765419 440.087372,127.427177 
	C443.550964,130.756546 444.101135,136.189697 441.393738,140.138565 
	C439.144470,143.419235 436.096710,144.560547 432.337036,143.011368 
	C428.754059,141.535004 426.630127,136.727814 427.563080,132.547958 
	C428.662201,127.623665 431.334320,125.669373 437.192932,125.849579 
z"/>
</svg>